<svg width="68" height="18" viewBox="0 0 68 18" fill="none" xmlns="http://www.w3.org/2000/svg">
<g id="Build">
<path id="Vector" d="M59.0554 0.411987C60.8314 0.411987 62.3834 0.771988 63.7114 1.49199C65.0554 2.19599 66.0874 3.18799 66.8074 4.46799C67.5274 5.74799 67.8874 7.21199 67.8874 8.85999C67.8874 10.492 67.5194 11.948 66.7834 13.228C66.0634 14.508 65.0314 15.516 63.6874 16.252C62.3594 16.972 60.8154 17.332 59.0554 17.332H52.3594V0.411987H59.0554ZM58.6954 13.18C60.0714 13.18 61.1514 12.804 61.9354 12.052C62.7194 11.3 63.1114 10.236 63.1114 8.85999C63.1114 7.46799 62.7194 6.39599 61.9354 5.64399C61.1514 4.87599 60.0714 4.49199 58.6954 4.49199H57.0634V13.18H58.6954Z" fill="#1E1E1E"/>
<path id="Vector_2" d="M45.2743 13.732H50.5303V17.332H40.5703V0.411987H45.2743V13.732Z" fill="#1E1E1E"/>
<path id="Vector_3" d="M37.8915 0.411987V17.332H33.1875V0.411987H37.8915Z" fill="#1E1E1E"/>
<path id="Vector_4" d="M20.7095 0.411987V10.228C20.7095 11.14 20.9175 11.844 21.3335 12.34C21.7655 12.836 22.4135 13.084 23.2775 13.084C24.1415 13.084 24.7895 12.836 25.2215 12.34C25.6695 11.828 25.8935 11.124 25.8935 10.228V0.411987H30.5975V10.228C30.5975 11.78 30.2695 13.108 29.6135 14.212C28.9575 15.3 28.0615 16.124 26.9255 16.684C25.8055 17.228 24.5575 17.5 23.1815 17.5C21.8055 17.5 20.5735 17.228 19.4855 16.684C18.4135 16.124 17.5655 15.3 16.9415 14.212C16.3335 13.124 16.0295 11.796 16.0295 10.228V0.411987H20.7095Z" fill="#1E1E1E"/>
<path id="Vector_5" d="M10.8 8.64399C11.792 8.86799 12.576 9.36399 13.152 10.132C13.744 10.884 14.04 11.748 14.04 12.724C14.04 14.164 13.544 15.292 12.552 16.108C11.56 16.924 10.168 17.332 8.376 17.332H0V0.411987H8.112C9.84 0.411987 11.192 0.795988 12.168 1.56399C13.16 2.33199 13.656 3.41199 13.656 4.80399C13.656 5.79599 13.392 6.62799 12.864 7.29999C12.352 7.95599 11.664 8.40399 10.8 8.64399ZM4.704 7.13199H7.08C8.264 7.13199 8.856 6.64399 8.856 5.66799C8.856 4.65999 8.264 4.15599 7.08 4.15599H4.704V7.13199ZM7.44 13.54C8.624 13.54 9.216 13.044 9.216 12.052C9.216 11.54 9.056 11.148 8.736 10.876C8.432 10.604 7.992 10.468 7.416 10.468H4.704V13.54H7.44Z" fill="#1E1E1E"/>
</g>
</svg>
